<svg width="144" height="72" viewBox="0 0 144 72" fill="none" xmlns="http://www.w3.org/2000/svg">
<path d="M63 57H9C5.68629 57 3 54.3137 3 51V48H9V21C9 17.6863 11.6863 15 15 15H57C60.3137 15 63 17.6863 63 21V48H69V51C69 54.3137 66.3137 57 63 57ZM15 21V48H57V21H15Z" fill="white"/>
<path d="M122.25 69H92.25C88.9363 69 86.25 66.3137 86.25 63V9C86.25 5.68629 88.9363 3 92.25 3H122.25C125.564 3 128.25 5.68629 128.25 9V63C128.25 66.3137 125.564 69 122.25 69ZM92.25 9V63H122.25V9H92.25ZM107.25 60C105.593 60 104.25 58.6569 104.25 57C104.25 55.3431 105.593 54 107.25 54C108.907 54 110.25 55.3431 110.25 57C110.25 58.6569 108.907 60 107.25 60Z" fill="white"/>
</svg>
