<svg width="72" height="72" viewBox="0 0 72 72" fill="none" xmlns="http://www.w3.org/2000/svg">
<path d="M13.26 61.737C12.4184 61.7356 11.6162 61.3807 11.049 60.759C10.4713 60.1424 10.1843 59.3086 10.26 58.467L10.995 50.385L44.949 16.443L55.56 27.051L21.615 60.99L13.533 61.725C13.44 61.734 13.347 61.737 13.26 61.737ZM57.678 24.93L47.07 14.322L53.433 7.95902C53.9957 7.39569 54.7593 7.07916 55.5555 7.07916C56.3517 7.07916 57.1153 7.39569 57.678 7.95902L64.041 14.322C64.6043 14.8847 64.9209 15.6483 64.9209 16.4445C64.9209 17.2407 64.6043 18.0043 64.041 18.567L57.681 24.927L57.678 24.93Z" fill="white"/>
</svg>
