<svg width="72" height="72" viewBox="0 0 72 72" fill="none" xmlns="http://www.w3.org/2000/svg">
<path d="M63 63H9V9H63V63ZM27.3 51.696L23.196 54.228C23.8356 55.6318 24.8722 56.8176 26.178 57.639C27.5965 58.4519 29.2083 58.8665 30.843 58.839C31.7005 58.833 32.5546 58.7324 33.39 58.539C35.1378 58.109 36.6196 56.9546 37.464 55.365C38.3055 53.385 38.6157 51.2196 38.364 49.083C38.364 48.675 38.364 48.258 38.364 47.838C38.379 44.757 38.364 41.622 38.364 38.586C38.364 37.038 38.364 35.487 38.364 33.933V33.807H33.3C33.3 35.985 33.3 38.158 33.3 40.326C33.3 42.507 33.3 44.685 33.3 46.869C33.3 47.427 33.3 47.973 33.3 48.498C33.4506 49.9954 33.342 51.5075 32.979 52.968C32.5432 53.8091 31.6464 54.3077 30.702 54.234C30.279 54.2328 29.8584 54.1691 29.454 54.045C28.6415 53.6202 27.9865 52.9463 27.585 52.122L27.486 51.954C27.393 51.795 27.33 51.684 27.3 51.684V51.696ZM45.147 51.096L41.028 53.457C41.3652 54.1949 41.8304 54.8672 42.402 55.443C42.543 55.599 42.702 55.767 42.849 55.953C44.8632 57.7543 47.4955 58.7077 50.196 58.614C53.6907 58.9584 56.9924 56.9517 58.296 53.691V53.667C58.6374 52.4685 58.6919 51.2065 58.455 49.983L58.557 50.13C58.113 47.343 56.094 45.408 51.801 43.665C51.468 43.509 51.123 43.365 50.787 43.215C49.452 42.639 48.192 42.099 47.754 41.115C47.5588 40.6088 47.5232 40.055 47.652 39.528C47.9626 38.4724 48.9812 37.7878 50.076 37.899C50.4102 37.899 50.7427 37.9475 51.063 38.043C52.0503 38.3756 52.849 39.1133 53.259 40.071C55.584 38.55 55.584 38.55 57.207 37.539C56.8357 36.9052 56.3939 36.3155 55.89 35.781C54.35 34.1301 52.1404 33.2728 49.89 33.453H49.53L47.946 33.654C46.4584 33.9879 45.1125 34.7788 44.097 35.916C42.9032 37.4089 42.3656 39.322 42.607 41.2182C42.8484 43.1145 43.8482 44.8318 45.378 45.978C46.6919 46.8773 48.1091 47.6155 49.599 48.177C51.522 48.987 53.181 49.677 53.517 50.94C53.7203 51.6715 53.5705 52.4559 53.112 53.061C52.2976 53.8652 51.1711 54.271 50.031 54.171C49.7171 54.17 49.4035 54.15 49.092 54.111C47.3954 53.7308 45.9511 52.6254 45.141 51.087L45.147 51.096Z" fill="white"/>
</svg>
