<svg width="42" height="42" viewBox="0 0 42 42" fill="none" xmlns="http://www.w3.org/2000/svg">
<path fill-rule="evenodd" clip-rule="evenodd" d="M27.248 25.9972C27.1656 25.9991 27.0829 26 27 26C20.9249 26 16 21.0751 16 15C16 14.9171 16.0009 14.8344 16.0028 14.7519C14.1721 16.2185 13 18.4734 13 21C13 25.4182 16.5817 29 21 29C23.5266 29 25.7814 27.8279 27.248 25.9972ZM28.4661 23.8812C27.989 23.9593 27.4992 24 27 24C22.0294 24 18 19.9706 18 15C18 14.5007 18.0407 14.011 18.1188 13.5339C18.2509 12.7274 18.4902 11.9571 18.8216 11.2379C17.9603 11.4293 17.1407 11.7317 16.3788 12.1295C13.1821 13.7982 11 17.1443 11 21C11 26.5228 15.4772 31 21 31C24.8557 31 28.2017 28.8178 29.8705 25.6212C30.2682 24.8593 30.5707 24.0397 30.762 23.1784C30.0429 23.5098 29.2725 23.7491 28.4661 23.8812Z" fill="#63B3ED"/>
<path d="M21 40C10.5066 40 2 31.4934 2 21H0C0 32.598 9.40202 42 21 42V40ZM40 21C40 31.4934 31.4934 40 21 40V42C32.598 42 42 32.598 42 21H40ZM21 2C31.4934 2 40 10.5066 40 21H42C42 9.40202 32.598 0 21 0V2ZM21 0C9.40202 0 0 9.40202 0 21H2C2 10.5066 10.5066 2 21 2V0Z" fill="black" fill-opacity="0.8"/>
</svg>
