<svg width="40" height="40" viewBox="0 0 40 40" fill="none" xmlns="http://www.w3.org/2000/svg">
<path d="M20 39C9.50659 39 1 30.4934 1 20H-1C-1 31.598 8.40202 41 20 41V39ZM39 20C39 30.4934 30.4934 39 20 39V41C31.598 41 41 31.598 41 20H39ZM20 1C30.4934 1 39 9.50659 39 20H41C41 8.40202 31.598 -1 20 -1V1ZM20 -1C8.40202 -1 -1 8.40202 -1 20H1C1 9.50659 9.50659 1 20 1V-1Z" fill="#E2E8F0"/>
<path fill-rule="evenodd" clip-rule="evenodd" d="M26.248 24.9972C26.1656 24.9991 26.0829 25 26 25C19.9249 25 15 20.0751 15 14C15 13.9171 15.0009 13.8344 15.0028 13.7519C13.1721 15.2185 12 17.4734 12 20C12 24.4182 15.5817 28 20 28C22.5266 28 24.7814 26.8279 26.248 24.9972ZM27.4661 22.8812C26.989 22.9593 26.4992 23 26 23C21.0294 23 17 18.9706 17 14C17 13.5007 17.0407 13.011 17.1188 12.5339C17.2509 11.7274 17.4902 10.9571 17.8216 10.2379C16.9603 10.4293 16.1407 10.7317 15.3788 11.1295C12.1821 12.7982 10 16.1443 10 20C10 25.5228 14.4772 30 20 30C23.8557 30 27.2017 27.8178 28.8705 24.6212C29.2682 23.8593 29.5707 23.0397 29.762 22.1784C29.0429 22.5098 28.2725 22.7491 27.4661 22.8812Z" fill="#ECC94B"/>
</svg>
