<svg width="42" height="42" viewBox="0 0 42 42" fill="none" xmlns="http://www.w3.org/2000/svg">
<path d="M21 40C10.5066 40 2 31.4934 2 21H0C0 32.598 9.40202 42 21 42V40ZM40 21C40 31.4934 31.4934 40 21 40V42C32.598 42 42 32.598 42 21H40ZM21 2C31.4934 2 40 10.5066 40 21H42C42 9.40202 32.598 0 21 0V2ZM21 0C9.40202 0 0 9.40202 0 21H2C2 10.5066 10.5066 2 21 2V0Z" fill="white"/>
<path d="M21.998 31H19.998V28H21.998V31ZM27.362 28.778L25.241 26.657L26.655 25.243L28.777 27.365L27.364 28.778H27.362ZM14.634 28.778L13.219 27.364L15.339 25.242L16.754 26.656L14.634 28.777V28.778ZM20.998 26.007C18.233 26.0059 15.9923 23.7637 15.993 20.9987C15.9938 18.2336 18.2357 15.9926 21.0007 15.993C23.7657 15.9934 26.007 18.235 26.007 21C26.0043 23.7649 23.763 26.0053 20.998 26.007ZM20.998 17.993C19.3376 17.9941 17.9923 19.3409 17.993 21.0013C17.9938 22.6618 19.3403 24.0074 21.0007 24.007C22.6612 24.0066 24.007 22.6605 24.007 21C24.0054 19.3392 22.6589 17.9936 20.998 17.993ZM30.998 22H27.998V20H30.998V22ZM13.998 22H10.998V20H13.998V22ZM26.654 16.758L25.241 15.343L27.362 13.221L28.777 14.636L26.655 16.757L26.654 16.758ZM15.341 16.758L13.221 14.637L14.636 13.223L16.756 15.345L15.342 16.757L15.341 16.758ZM21.998 14H19.998V11H21.998V14Z" fill="#ECC94B"/>
</svg>
